<?xml version="1.0" encoding="utf-8"?>
<!-- Generator: Adobe Illustrator 26.2.0, SVG Export Plug-In . SVG Version: 6.00 Build 0)  -->
<svg version="1.1" id="address" xmlns="http://www.w3.org/2000/svg" xmlns:xlink="http://www.w3.org/1999/xlink" x="0px" y="0px"
	 viewBox="0 0 24.46 24.46" style="enable-background:new 0 0 24.46 24.46;" xml:space="preserve">
<style type="text/css">
	.st0{fill:#344E51;}
	.st1{fill:#FFFFFF;}
</style>
<path id="bg" class="st0" d="M19.9,24.46l-15.35,0C2.04,24.46,0,22.42,0,19.9L0,4.56C0,2.04,2.04,0,4.56,0L19.9,0
	c2.52,0,4.56,2.04,4.56,4.56l0,15.35C24.46,22.42,22.42,24.46,19.9,24.46z"/>
<g id="white">
	<path class="st1" d="M17.26,10.75c0-2.78-2.25-5.04-5.04-5.04c-2.78,0-5.03,2.26-5.03,5.04c0,1.04,0.32,2.01,0.87,2.8l0,0v0.02l0,0
		l4.16,6.26l4.19-6.28h-0.01C16.95,12.75,17.26,11.78,17.26,10.75z M12.22,13.55c-1.55,0-2.8-1.26-2.8-2.8c0-1.54,1.26-2.8,2.8-2.8
		c1.56,0,2.8,1.26,2.8,2.8C15.03,12.29,13.78,13.55,12.22,13.55z"/>
</g>
</svg>
