<?xml version="1.0" encoding="utf-8"?>
<!-- Generator: Adobe Illustrator 26.2.0, SVG Export Plug-In . SVG Version: 6.00 Build 0)  -->
<svg version="1.1" id="address" xmlns="http://www.w3.org/2000/svg" xmlns:xlink="http://www.w3.org/1999/xlink" x="0px" y="0px"
	 viewBox="0 0 24.46 24.46" style="enable-background:new 0 0 24.46 24.46;" xml:space="preserve">
<style type="text/css">
	.st0{fill:#344E51;}
	.st1{fill:#FFFFFF;}
</style>
<path id="bg" class="st0" d="M19.9,24.46l-15.35,0C2.04,24.46,0,22.42,0,19.9L0,4.56C0,2.04,2.04,0,4.56,0L19.9,0
	c2.52,0,4.56,2.04,4.56,4.56l0,15.35C24.46,22.42,22.42,24.46,19.9,24.46z"/>
<g>
	<g>
		<polygon class="st1" points="12.22,12.51 5.53,7.36 18.93,7.36 		"/>
		<polygon class="st1" points="9.9,12.07 4.49,16.49 4.49,7.92 		"/>
		<polygon class="st1" points="10.78,12.74 12.22,13.87 13.74,12.7 19.02,17.09 5.47,17.09 		"/>
		<polygon class="st1" points="14.61,12.02 19.97,7.92 19.97,16.48 		"/>
	</g>
</g>
</svg>
