<?xml version="1.0" encoding="utf-8"?>
<!-- Generator: Adobe Illustrator 26.2.0, SVG Export Plug-In . SVG Version: 6.00 Build 0)  -->
<svg version="1.1" id="address" xmlns="http://www.w3.org/2000/svg" xmlns:xlink="http://www.w3.org/1999/xlink" x="0px" y="0px"
	 viewBox="0 0 24.46 24.46" style="enable-background:new 0 0 24.46 24.46;" xml:space="preserve">
<style type="text/css">
	.st0{fill:#344E51;}
	.st1{fill:#FFFFFF;}
</style>
<path id="bg" class="st0" d="M19.9,24.46l-15.35,0C2.04,24.46,0,22.42,0,19.9L0,4.56C0,2.04,2.04,0,4.56,0L19.9,0
	c2.52,0,4.56,2.04,4.56,4.56l0,15.35C24.46,22.42,22.42,24.46,19.9,24.46z"/>
<g>
	<path class="st1" d="M10.62,9.37c0.77-0.9-0.07-2.07-0.58-2.88C9.75,6.03,9.32,5.37,8.71,5.29C8.14,5.22,7.62,5.86,7.24,6.21
		C6.33,7.04,5.82,8.12,5.76,9.35c0.01,0.14,0.01,0.37-0.01,0.16c0.09,0.74,0.17,1.44,0.44,2.14c0.24,0.66,0.57,1.27,0.95,1.86
		c0.82,1.23,1.76,2.42,2.88,3.41c1.09,0.97,2.32,1.84,3.78,2.15c1.37,0.28,2.7-0.01,3.78-0.9c0.39-0.32,1.11-0.78,1.14-1.33
		c0.03-0.56-0.41-1-0.79-1.34c-0.81-0.73-2.01-1.93-3.11-1.05c-0.43,0.35-0.89,1-1.46,1.1c-0.57,0.09-1.12-0.32-1.54-0.65
		c-0.92-0.75-1.83-1.78-2.37-2.85C9.2,11.58,9,10.97,9.33,10.49C9.68,10.03,10.25,9.81,10.62,9.37z"/>
</g>
</svg>
