<?xml version="1.0" encoding="utf-8"?>
<!-- Generator: Adobe Illustrator 26.2.0, SVG Export Plug-In . SVG Version: 6.00 Build 0)  -->
<svg version="1.1" id="Layer_1" xmlns="http://www.w3.org/2000/svg" xmlns:xlink="http://www.w3.org/1999/xlink" x="0px" y="0px"
	 viewBox="0 0 82.94 82.94" style="enable-background:new 0 0 82.94 82.94;" xml:space="preserve">
<style type="text/css">
	.st0{fill:#70A82A;}
	.st1{clip-path:url(#SVGID_00000078021797978609662120000015472674228432100237_);}
	.st2{fill:#DCE225;}
	.st3{fill:#306666;}
</style>
<circle class="st0" cx="41.47" cy="41.47" r="41.47"/>
<g>
	<defs>
		<circle id="SVGID_1_" cx="41.47" cy="41.47" r="41.47"/>
	</defs>
	<clipPath id="SVGID_00000122700691084427813400000004211330833096858045_">
		<use xlink:href="#SVGID_1_"  style="overflow:visible;"/>
	</clipPath>
	<g style="clip-path:url(#SVGID_00000122700691084427813400000004211330833096858045_);">
		<path class="st2" d="M8.31,57.57c3.3,0.64,6.71,0.99,10.2,0.99c23.95,0,44.2-15.84,50.85-37.61c-3.3-0.64-6.71-0.99-10.2-0.99
			C35.22,19.96,14.97,35.79,8.31,57.57z"/>
		<g>
			<path class="st3" d="M69.73,19.11c-3.49-0.68-7.05-1.02-10.56-1.02c-12.03,0-23.45,3.81-33.04,11.01
				c-1.19,0.89-2.34,1.84-3.45,2.82C15.12,38.62,9.44,47.39,6.51,57.02c-1.57,5.16-2.37,10.53-2.37,15.98
				c0,7.16,1.36,14.12,4.05,20.69c0.3,0.72,0.99,1.16,1.73,1.16c0.24,0,0.47-0.05,0.71-0.14c0.96-0.39,1.41-1.48,1.02-2.44
				c-2.5-6.12-3.77-12.61-3.77-19.28c0-4.52,0.59-8.99,1.76-13.31c2.95,0.48,5.93,0.74,8.88,0.74c12.03,0,23.45-3.81,33.04-11.01
				c9.27-6.97,16.23-16.88,19.61-27.92c0.15-0.51,0.09-1.05-0.19-1.51C70.7,19.53,70.25,19.21,69.73,19.11z M18.52,56.69
				c-2.58,0-5.18-0.2-7.76-0.59c2.68-7.64,7.01-14.33,12.52-19.73c0.09-0.08,0.17-0.17,0.25-0.25c0.32-0.3,0.64-0.6,0.96-0.9
				c0.2-0.18,0.4-0.37,0.61-0.55c0.22-0.19,0.44-0.38,0.66-0.57c0.33-0.28,0.66-0.56,1-0.84c0.1-0.08,0.21-0.17,0.31-0.25
				c8.79-7,19.89-11.05,31.83-11.05c2.67,0,5.33,0.22,7.95,0.63C59.6,43.08,40.45,56.69,18.52,56.69z"/>
		</g>
	</g>
</g>
</svg>
