<?xml version="1.0" encoding="utf-8"?>
<!-- Generator: Adobe Illustrator 26.2.1, SVG Export Plug-In . SVG Version: 6.00 Build 0)  -->
<svg version="1.1" id="Layer_1" xmlns="http://www.w3.org/2000/svg" xmlns:xlink="http://www.w3.org/1999/xlink" x="0px" y="0px"
	 viewBox="0 0 141.39 63.6" style="enable-background:new 0 0 141.39 63.6;" xml:space="preserve">
<style type="text/css">
	.st0{fill:#DCE225;}
	.st1{fill:#70A82A;}
	.st2{fill:#306666;}
	.st3{fill:#378343;}
</style>
<g>
	<path class="st0" d="M35.74,30.6c2.1,0.41,4.27,0.63,6.5,0.63c15.25,0,28.14-10.08,32.38-23.95c-2.1-0.41-4.27-0.63-6.5-0.63
		C52.87,6.66,39.98,16.74,35.74,30.6z"/>
	<path class="st1" d="M28.37,21.7c-3.04,2.5-6.94,4.01-11.19,4.01c-7.26,0-13.5-4.39-16.2-10.67c3.04-2.5,6.94-4.01,11.19-4.01
		C19.43,11.03,25.67,15.43,28.37,21.7z"/>
	<path class="st1" d="M39.15,9.95c-1.95,0.94-4.23,1.24-6.5,0.68c-3.88-0.95-6.64-4.11-7.27-7.81c1.95-0.94,4.23-1.24,6.5-0.68
		C35.77,3.09,38.53,6.25,39.15,9.95z"/>
	<g>
		<path class="st2" d="M52.55,63.6c-1.12,0-1.98-0.61-1.98-1.6l0.98,0c0.04,0.46,0.36,0.83,1,0.83c0.64,0,1.01-0.35,1.01-0.82
			c0-1.35-2.97-0.47-2.97-2.53c0-0.98,0.78-1.59,1.92-1.59c1.07,0,1.83,0.56,1.91,1.52H53.4c-0.03-0.38-0.36-0.72-0.94-0.74
			c-0.53-0.02-0.94,0.24-0.94,0.78c0,1.26,2.96,0.47,2.96,2.52C54.48,62.79,53.79,63.6,52.55,63.6z"/>
		<path class="st2" d="M62.94,63.6c-1.58,0-2.86-1.18-2.86-2.86c0-1.67,1.28-2.86,2.86-2.86c1.59,0,2.86,1.18,2.86,2.86
			C65.79,62.42,64.53,63.6,62.94,63.6z M62.94,62.8c1.11,0,1.91-0.8,1.91-2.07c0-1.26-0.8-2.05-1.91-2.05
			c-1.11,0-1.91,0.79-1.91,2.05C61.02,62,61.83,62.8,62.94,62.8z"/>
		<path class="st2" d="M72.43,57.95l0,4.85h1.89l0,0.74l-2.81,0l0-5.59H72.43z"/>
		<path class="st2" d="M79.9,57.95h0.92l0,3.56c0,0.87,0.49,1.28,1.26,1.28c0.78,0,1.27-0.41,1.27-1.28l0-3.56h0.92l0,3.55
			c0,1.42-1.03,2.1-2.2,2.1c-1.17,0-2.17-0.68-2.17-2.1L79.9,57.95z"/>
		<path class="st2" d="M89.99,57.95l3.9,0v0.75H92.4l0,4.84h-0.92l0-4.84h-1.5V57.95z"/>
		<path class="st2" d="M99.64,57.95h0.92l0,5.59h-0.92L99.64,57.95z"/>
		<path class="st2" d="M109.13,63.6c-1.58,0-2.86-1.18-2.86-2.86c0-1.67,1.28-2.86,2.86-2.86c1.59,0,2.86,1.18,2.86,2.86
			C111.99,62.42,110.73,63.6,109.13,63.6z M109.13,62.8c1.11,0,1.91-0.8,1.91-2.07c0-1.26-0.8-2.05-1.91-2.05
			c-1.11,0-1.91,0.79-1.91,2.05C107.22,62,108.02,62.8,109.13,62.8z"/>
		<path class="st2" d="M122.3,57.94l0,5.6l-0.92,0l-2.76-4.17l0,4.17h-0.92l0-5.6h0.92l2.76,4.17l0-4.17H122.3z"/>
	</g>
	<g>
		<g>
			<path class="st3" d="M75.24,47.7l-0.86,6.95l-3.5,0l2.4-19.63l5.97,0c1.11,0,2.07,0.13,2.87,0.4c0.8,0.27,1.46,0.64,1.97,1.12
				c0.52,0.48,0.9,1.05,1.15,1.7c0.25,0.66,0.37,1.38,0.37,2.16c0,1.05-0.17,2.02-0.5,2.91c-0.33,0.89-0.83,1.66-1.49,2.31
				c-0.66,0.65-1.49,1.15-2.48,1.52c-0.99,0.37-2.15,0.55-3.47,0.55H75.24z M76.47,37.74l-0.9,7.22l2.47,0
				c0.69,0,1.28-0.1,1.79-0.31c0.51-0.21,0.93-0.5,1.26-0.88c0.33-0.38,0.58-0.82,0.74-1.34c0.16-0.52,0.24-1.09,0.24-1.71
				c0-0.44-0.06-0.85-0.19-1.22c-0.13-0.37-0.32-0.69-0.58-0.94c-0.26-0.26-0.59-0.46-0.98-0.6s-0.86-0.22-1.4-0.22H76.47z"/>
			<path class="st3" d="M86.39,54.65l2.44-20.17l3.3,0l-2.44,20.17L86.39,54.65z"/>
			<path class="st3" d="M103.93,54.65l-1.76,0c-0.41,0-0.69-0.1-0.86-0.29c-0.16-0.19-0.24-0.43-0.24-0.72l0.11-1.9
				c-0.62,0.96-1.31,1.72-2.08,2.27c-0.77,0.56-1.62,0.83-2.54,0.83c-0.52,0-1.02-0.1-1.47-0.31c-0.46-0.21-0.86-0.52-1.19-0.93
				c-0.34-0.41-0.61-0.93-0.8-1.55c-0.19-0.62-0.29-1.35-0.29-2.18s0.1-1.64,0.31-2.43c0.21-0.79,0.5-1.53,0.89-2.22
				c0.38-0.69,0.85-1.33,1.39-1.91c0.54-0.58,1.15-1.08,1.83-1.49c0.67-0.42,1.4-0.74,2.19-0.97c0.78-0.23,1.61-0.35,2.48-0.35
				c0.62,0,1.25,0.05,1.88,0.14c0.63,0.09,1.25,0.25,1.85,0.49L103.93,54.65z M97.88,52.11c0.37,0,0.74-0.13,1.09-0.38
				c0.36-0.25,0.69-0.6,1.01-1.05c0.32-0.45,0.61-0.97,0.88-1.58c0.27-0.61,0.51-1.26,0.71-1.95l0.53-4.21
				c-0.24-0.03-0.47-0.04-0.68-0.04c-0.75,0-1.45,0.17-2.09,0.52c-0.64,0.34-1.2,0.81-1.67,1.39c-0.47,0.58-0.84,1.26-1.11,2.04
				c-0.27,0.77-0.4,1.59-0.4,2.45c0,0.98,0.15,1.69,0.46,2.14C96.92,51.88,97.34,52.11,97.88,52.11z"/>
			<path class="st3" d="M107.04,54.65l1.67-13.94l1.71,0c0.35,0,0.63,0.09,0.82,0.26c0.19,0.17,0.29,0.45,0.29,0.83l-0.09,1.81
				c0.71-1.04,1.49-1.82,2.35-2.33c0.86-0.51,1.75-0.77,2.66-0.77c0.52,0,0.98,0.09,1.4,0.28s0.78,0.46,1.08,0.81
				c0.3,0.36,0.53,0.8,0.69,1.32c0.16,0.52,0.24,1.12,0.24,1.8c0,0.17-0.01,0.35-0.02,0.52c-0.01,0.18-0.03,0.36-0.05,0.55
				l-1.05,8.86l-3.35,0c0.18-1.53,0.33-2.83,0.46-3.89c0.13-1.06,0.23-1.95,0.31-2.65s0.14-1.26,0.19-1.66
				c0.05-0.4,0.08-0.71,0.1-0.92c0.02-0.21,0.04-0.35,0.04-0.41c0-0.07,0.01-0.12,0.01-0.17c0-0.6-0.11-1.03-0.33-1.3
				c-0.22-0.27-0.56-0.4-1.02-0.4c-0.37,0-0.76,0.11-1.15,0.33c-0.4,0.22-0.78,0.52-1.14,0.92c-0.36,0.4-0.69,0.88-0.99,1.44
				c-0.3,0.56-0.54,1.19-0.73,1.87l-0.76,6.84H107.04z"/>
			<path class="st3" d="M122.94,51.81c0-0.06,0-0.14,0-0.22c0-0.09,0.01-0.21,0.02-0.38c0.01-0.17,0.04-0.39,0.07-0.67
				c0.03-0.28,0.07-0.63,0.13-1.07l0.77-6.24h-1.32c-0.15,0-0.28-0.05-0.37-0.14c-0.09-0.1-0.14-0.24-0.14-0.43
				c0-0.01,0-0.03,0.01-0.05c0-0.03,0.01-0.09,0.02-0.18c0.01-0.1,0.02-0.24,0.05-0.43c0.02-0.19,0.05-0.46,0.09-0.8l2.12-0.37
				l1.11-3.8c0.05-0.18,0.15-0.32,0.28-0.42c0.13-0.1,0.29-0.15,0.48-0.15h1.79l-0.54,4.38l3.37,0l-0.28,2.39l-3.38,0l-0.75,6.07
				c-0.05,0.37-0.08,0.67-0.1,0.88c-0.02,0.22-0.04,0.39-0.05,0.51c-0.01,0.12-0.02,0.21-0.03,0.26c0,0.05-0.01,0.08-0.01,0.1
				c0,0.34,0.08,0.62,0.25,0.81c0.17,0.2,0.4,0.3,0.71,0.3c0.19,0,0.35-0.02,0.49-0.07c0.14-0.05,0.25-0.1,0.35-0.16
				c0.1-0.05,0.19-0.11,0.26-0.16c0.08-0.05,0.15-0.07,0.22-0.07c0.1,0,0.18,0.02,0.24,0.07c0.06,0.05,0.11,0.12,0.16,0.22
				l0.72,1.63c-0.5,0.41-1.05,0.71-1.66,0.92c-0.61,0.21-1.22,0.31-1.83,0.31c-0.99,0-1.77-0.27-2.34-0.8
				C123.27,53.53,122.97,52.78,122.94,51.81z"/>
			<path class="st3" d="M140.52,43.34c-0.1,0.14-0.19,0.25-0.29,0.31c-0.09,0.06-0.21,0.09-0.35,0.09c-0.15,0-0.31-0.05-0.47-0.14
				c-0.16-0.09-0.35-0.19-0.56-0.31c-0.21-0.11-0.46-0.22-0.73-0.31c-0.28-0.09-0.61-0.14-1-0.14c-0.71,0-1.26,0.16-1.64,0.48
				c-0.38,0.32-0.57,0.72-0.57,1.2c0,0.28,0.08,0.52,0.24,0.71c0.16,0.19,0.36,0.36,0.62,0.51c0.25,0.14,0.54,0.28,0.87,0.4
				c0.33,0.12,0.66,0.25,1,0.39c0.34,0.14,0.68,0.3,1,0.48c0.33,0.18,0.62,0.39,0.87,0.64c0.25,0.25,0.46,0.56,0.62,0.92
				c0.16,0.36,0.24,0.79,0.24,1.28c0,0.67-0.13,1.31-0.4,1.91c-0.27,0.61-0.65,1.14-1.15,1.59c-0.5,0.46-1.1,0.82-1.81,1.09
				c-0.71,0.27-1.49,0.4-2.36,0.4c-0.44,0-0.87-0.04-1.28-0.13c-0.41-0.09-0.8-0.21-1.16-0.36s-0.69-0.33-0.98-0.54
				c-0.29-0.21-0.55-0.43-0.75-0.68l0.81-1.28c0.1-0.15,0.22-0.27,0.36-0.35c0.14-0.08,0.31-0.12,0.5-0.12s0.36,0.06,0.52,0.18
				c0.15,0.12,0.33,0.25,0.54,0.39c0.21,0.14,0.46,0.27,0.75,0.39c0.29,0.12,0.67,0.18,1.13,0.18c0.37,0,0.7-0.05,0.98-0.15
				c0.28-0.1,0.52-0.23,0.72-0.41c0.19-0.17,0.34-0.37,0.44-0.6s0.15-0.47,0.15-0.72c0-0.31-0.08-0.56-0.23-0.77
				c-0.15-0.2-0.36-0.38-0.62-0.53c-0.26-0.15-0.55-0.28-0.88-0.39c-0.33-0.11-0.66-0.23-1-0.36c-0.34-0.13-0.67-0.27-0.99-0.43
				c-0.32-0.16-0.61-0.37-0.87-0.62c-0.26-0.25-0.46-0.55-0.62-0.91c-0.15-0.36-0.23-0.79-0.23-1.31c0-0.62,0.12-1.21,0.35-1.8
				c0.24-0.58,0.58-1.1,1.04-1.55c0.46-0.45,1.02-0.81,1.68-1.08c0.67-0.27,1.43-0.41,2.29-0.41c0.89,0,1.67,0.15,2.35,0.45
				c0.68,0.3,1.26,0.69,1.73,1.16L140.52,43.34z"/>
		</g>
	</g>
	<g>
		<path class="st2" d="M75.76,0.72C73.26,0.24,70.69,0,68.12,0C57.43,0,47.7,4.17,40.46,10.95c-0.02-0.4-0.07-0.8-0.13-1.2
			c-0.73-4.3-3.93-7.74-8.16-8.77c-2.44-0.6-5.04-0.32-7.3,0.76c-0.48,0.23-0.75,0.75-0.66,1.27c0.73,4.3,3.93,7.74,8.16,8.77
			c0.85,0.21,1.71,0.31,2.58,0.31c1.06,0,2.12-0.16,3.14-0.46c-0.01,0.65-0.08,1.3-0.24,1.95c-0.01,0.02-0.01,0.04-0.02,0.06
			c-2.9,3.27-5.29,7.01-7.03,11.09c-0.26-1.23-0.63-2.43-1.14-3.59c0,0,0,0,0,0c-2.98-6.91-9.77-11.38-17.29-11.38
			c-4.35,0-8.59,1.52-11.94,4.28c-0.41,0.34-0.55,0.9-0.34,1.39C3.08,22.33,9.86,26.8,17.39,26.8c3.8,0,7.52-1.16,10.63-3.29
			c0.53,1.63,0.8,3.33,0.8,5.06c0,1.12-0.11,2.24-0.34,3.33c-0.02,0.1-0.02,0.2-0.02,0.3c-0.56,2.68-0.86,5.46-0.86,8.3
			c0,4.53,0.74,8.98,2.21,13.23c0.17,0.49,0.63,0.8,1.12,0.8c0.13,0,0.26-0.02,0.39-0.07c0.62-0.21,0.95-0.89,0.74-1.51
			c-1.38-3.99-2.08-8.18-2.08-12.45c0-21.03,17.11-38.13,38.13-38.13c2.42,0,4.84,0.23,7.19,0.68c0.65,0.12,1.27-0.3,1.39-0.95
			C76.83,1.47,76.4,0.84,75.76,0.72z M17.39,24.42c-6.27,0-11.95-3.55-14.72-9.12c2.8-2.05,6.22-3.17,9.71-3.17
			c6.27,0,11.95,3.55,14.72,9.12C24.3,23.3,20.88,24.42,17.39,24.42z M32.93,9.48c-3-0.73-5.34-3.02-6.17-5.94
			C28.31,2.99,30,2.9,31.6,3.29c3,0.73,5.34,3.02,6.17,5.94C36.22,9.78,34.54,9.87,32.93,9.48z"/>
		<path class="st2" d="M74.84,6.12c-2.22-0.43-4.49-0.65-6.72-0.65c-7.66,0-14.93,2.43-21.03,7.01c-0.76,0.57-1.49,1.17-2.2,1.8
			c-4.82,4.26-8.43,9.85-10.3,15.97c-1,3.28-1.51,6.71-1.51,10.17c0,4.56,0.87,8.99,2.58,13.18c0.19,0.46,0.63,0.74,1.1,0.74
			c0.15,0,0.3-0.03,0.45-0.09c0.61-0.25,0.9-0.94,0.65-1.55c-1.59-3.9-2.4-8.03-2.4-12.28c0-2.88,0.38-5.72,1.12-8.47
			c1.88,0.31,3.77,0.47,5.65,0.47c7.66,0,14.93-2.43,21.03-7.01c5.9-4.44,10.33-10.75,12.48-17.77c0.1-0.32,0.06-0.67-0.12-0.96
			C75.46,6.39,75.17,6.18,74.84,6.12z M42.24,30.04c-1.64,0-3.3-0.13-4.94-0.38c1.7-4.87,4.46-9.13,7.97-12.56
			c0.05-0.05,0.11-0.11,0.16-0.16c0.2-0.19,0.41-0.38,0.61-0.57c0.13-0.12,0.26-0.24,0.39-0.35c0.14-0.12,0.28-0.24,0.42-0.36
			c0.21-0.18,0.42-0.36,0.64-0.53c0.07-0.05,0.13-0.11,0.2-0.16c5.6-4.46,12.66-7.03,20.26-7.03c1.7,0,3.39,0.14,5.06,0.4
			C68.39,21.38,56.21,30.04,42.24,30.04z"/>
	</g>
	<g>
		<path class="st2" d="M63.85,40.36L63.85,40.36c0-0.65-0.48-1.17-1.07-1.17h-2.34v-2.98c0-0.64-0.52-1.17-1.17-1.17
			s-1.17,0.52-1.17,1.17v2.98h-1.42c-0.59,0-1.07,0.52-1.07,1.17v0c0,0.64,0.48,1.17,1.07,1.17h1.42v7.94
			c0,1.55,0.24,2.71,0.92,3.42c0.57,0.65,1.47,1,2.58,1c0.49,0,0.93-0.04,1.31-0.1c0.47-0.08,0.79-0.49,0.77-0.97l0-0.04
			c-0.03-0.52-0.49-0.89-1.01-0.86c-0.14,0.01-0.28,0.01-0.44,0.01c-1.33,0-1.79-0.92-1.79-2.55l0-7.86h2.34
			C63.37,41.53,63.85,41.01,63.85,40.36z"/>
		<path class="st2" d="M47.63,38.24c-4.02,0-7.29,3.69-7.29,8.23s3.27,8.23,7.29,8.23c2.37,0,4.6-1.31,5.97-3.5
			c0.29-0.47,0.15-1.09-0.32-1.39c-0.47-0.29-1.09-0.15-1.39,0.32c-0.99,1.6-2.59,2.55-4.26,2.55c-2.61,0-4.78-2.25-5.2-5.18h10.75
			c0.07,0,0.13-0.03,0.19-0.04c0.01,0,0.03,0.01,0.04,0.01c0.56,0,1.01-0.45,1.01-1.01C54.42,41.77,51.5,38.24,47.63,38.24z
			 M47.63,40.25c2.51,0,4.39,2.15,4.72,5.24h-9.93C42.82,42.53,45,40.25,47.63,40.25z"/>
	</g>
</g>
</svg>
