<?xml version="1.0" encoding="utf-8"?>
<!-- Generator: Adobe Illustrator 26.2.1, SVG Export Plug-In . SVG Version: 6.00 Build 0)  -->
<svg version="1.1" id="Layer_1" xmlns="http://www.w3.org/2000/svg" xmlns:xlink="http://www.w3.org/1999/xlink" x="0px" y="0px"
	 viewBox="0 0 159.37 22.52" style="enable-background:new 0 0 159.37 22.52;" xml:space="preserve">
<style type="text/css">
	.st0{fill:#344E51;}
	.st1{fill:#FFFFFF;}
	.st2{fill:#70A82A;}
</style>
<g>
	<g>
		<rect x="34.21" class="st0" width="22.52" height="22.52"/>
		<g>
			<path class="st1" d="M46.86,15.05c0,0.25-0.15,0.33-0.42,0.33c-0.25,0-1.29-0.06-1.29-0.31v-4.93l-0.41,0.33
				c-0.09,0.07-0.59-0.2-0.87-0.52c-0.19-0.22-0.27-0.47-0.06-0.64l1.39-1.13c0.23-0.19,0.64-0.22,1.21-0.22
				c0.32,0,0.45,0.13,0.45,0.28V15.05z"/>
		</g>
	</g>
	<g>
		<rect class="st2" width="22.52" height="22.52"/>
		<g>
			<path class="st1" d="M13.62,11.71l-2.37,0.9l2.37,0.91v1.63l-4.56-1.8v-1.48l4.56-1.8V11.71z"/>
		</g>
	</g>
	<g>
		<rect x="68.43" class="st2" width="22.52" height="22.52"/>
		<g>
			<path class="st1" d="M77.47,15.26c-0.22,0-0.24-0.27-0.24-0.39c0-0.2,0.09-0.97,0.22-1.16c2.33-2.28,2.82-2.64,2.82-3.47
				c0-0.48-0.33-0.73-1.19-0.73c-0.58,0-0.94,0.11-1.18,0.13c-0.33,0.03-0.47-0.55-0.49-1.01c-0.01-0.29,0.04-0.4,0.34-0.48
				c0.44-0.14,1.34-0.19,1.72-0.19c1.7,0,2.58,0.54,2.58,2.21c0,0.9-0.14,1.66-2.41,3.54h2.34c0.17,0,0.24,0.19,0.24,0.4
				c0,0.26,0,1.15-0.26,1.15H77.47z"/>
		</g>
	</g>
	<g>
		<rect x="102.64" class="st2" width="22.52" height="22.52"/>
		<g>
			<path class="st1" d="M113.33,13.87c0.95,0,1.27-0.24,1.27-0.68v-0.21c0-0.45-0.26-0.65-1.17-0.65h-0.41
				c-0.32,0-0.46-0.85-0.46-1.07c0-0.25,0.11-0.43,0.38-0.43h0.34c1,0,1.21-0.19,1.21-0.54v-0.25c0-0.4-0.28-0.58-1.27-0.58
				c-0.52,0-0.94,0.07-1.47,0.13c-0.22,0.03-0.29-0.65-0.29-1.09c0-0.54,1.58-0.54,2.27-0.54c1.58,0,2.53,0.31,2.53,1.98v0.45
				c0,0.7-0.46,0.96-0.88,1.12c0.44,0.09,1.02,0.45,1.02,1.27v0.63c0,1.53-1.13,1.97-2.65,1.97c-0.93,0-2.44-0.08-2.44-0.39
				c0-0.34,0.03-1.22,0.3-1.22C111.97,13.77,112.59,13.87,113.33,13.87z"/>
		</g>
	</g>
	<g>
		<rect x="136.85" class="st2" width="22.52" height="22.52"/>
		<g>
			<path class="st1" d="M145.76,10.07l4.57,1.8v1.48l-4.57,1.8v-1.63l2.37-0.91l-2.37-0.9V10.07z"/>
		</g>
	</g>
</g>
</svg>
