<?xml version="1.0" encoding="utf-8"?>
<!-- Generator: Adobe Illustrator 26.2.0, SVG Export Plug-In . SVG Version: 6.00 Build 0)  -->
<svg version="1.1" id="qoute" xmlns="http://www.w3.org/2000/svg" xmlns:xlink="http://www.w3.org/1999/xlink" x="0px" y="0px"
	 viewBox="0 0 59.56 39.97" style="enable-background:new 0 0 59.56 39.97;" xml:space="preserve">
<style type="text/css">
	.st0{fill:#97BC4A;}
</style>
<g>
	<g>
		<g>
			<path class="st0" d="M19.74,39.97l-10.57,0l1.13-3.06c0.96-2.59,2.47-7.29,2.69-9.54c-0.45-0.26-1.38-0.61-2.09-0.87
				c-3.12-1.16-7.85-2.92-9.89-8.38c-1.68-4.48-1.24-9.06,1.19-12.57C4.68,1.97,8.85,0,13.93,0c5,0,8.85,1.9,11.13,5.49
				c4.15,6.54,2.57,17.71-4.71,33.18L19.74,39.97z M15.6,35.43l1.25,0c7.93-17.39,6.18-24.69,4.38-27.52
				c-1.42-2.24-3.88-3.38-7.3-3.38c-3.56,0-6.4,1.28-8.01,3.6c-1.57,2.26-1.82,5.33-0.67,8.4c1.32,3.52,4.45,4.69,7.22,5.72
				c2.29,0.85,5.14,1.91,5.07,4.85C17.48,29.26,16.45,32.85,15.6,35.43z"/>
		</g>
	</g>
	<g>
		<g>
			<path class="st0" d="M51.98,39.97l-10.57,0l1.13-3.06c0.96-2.59,2.47-7.29,2.69-9.54c-0.45-0.26-1.38-0.61-2.09-0.87
				c-3.12-1.16-7.85-2.92-9.89-8.38c-1.68-4.48-1.24-9.06,1.19-12.57C36.92,1.97,41.09,0,46.17,0c5,0,8.85,1.9,11.13,5.49
				c4.15,6.54,2.57,17.71-4.71,33.18L51.98,39.97z M47.85,35.43l1.25,0c7.93-17.39,6.18-24.69,4.38-27.52
				c-1.42-2.24-3.88-3.38-7.3-3.38c-3.56,0-6.4,1.28-8.01,3.6c-1.57,2.26-1.82,5.33-0.67,8.4c1.32,3.52,4.45,4.69,7.22,5.72
				c2.29,0.85,5.14,1.91,5.07,4.85C49.73,29.26,48.69,32.85,47.85,35.43z"/>
		</g>
	</g>
</g>
</svg>
